<svg width="40" height="41" viewBox="0 0 40 41" fill="none" xmlns="http://www.w3.org/2000/svg">
<path d="M26.875 10.8125C26.875 10.6406 26.7344 10.5 26.5625 10.5H11.5625C11.3906 10.5 11.25 10.6406 11.25 10.8125V12.6875C11.25 12.8594 11.3906 13 11.5625 13H26.5625C26.7344 13 26.875 12.8594 26.875 12.6875V10.8125ZM26.5625 16.125H11.5625C11.3906 16.125 11.25 16.2656 11.25 16.4375V18.3125C11.25 18.4844 11.3906 18.625 11.5625 18.625H26.5625C26.7344 18.625 26.875 18.4844 26.875 18.3125V16.4375C26.875 16.2656 26.7344 16.125 26.5625 16.125ZM18.75 21.75H11.5625C11.3906 21.75 11.25 21.8906 11.25 22.0625V23.9375C11.25 24.1094 11.3906 24.25 11.5625 24.25H18.75C18.9219 24.25 19.0625 24.1094 19.0625 23.9375V22.0625C19.0625 21.8906 18.9219 21.75 18.75 21.75ZM16.875 33.7812H8.125V6.28125H30V19.7188C30 19.8906 30.1406 20.0312 30.3125 20.0312H32.5C32.6719 20.0312 32.8125 19.8906 32.8125 19.7188V4.71875C32.8125 4.02734 32.2539 3.46875 31.5625 3.46875H6.5625C5.87109 3.46875 5.3125 4.02734 5.3125 4.71875V35.3438C5.3125 36.0352 5.87109 36.5938 6.5625 36.5938H16.875C17.0469 36.5938 17.1875 36.4531 17.1875 36.2812V34.0938C17.1875 33.9219 17.0469 33.7812 16.875 33.7812ZM30.8125 30.875C31.9453 29.8477 32.6562 28.3633 32.6562 26.7109C32.6562 23.6055 30.1367 21.0859 27.0312 21.0859C23.9258 21.0859 21.4062 23.6055 21.4062 26.7109C21.4062 28.3633 22.1172 29.8477 23.25 30.875C21.0234 32.1445 19.4922 34.4961 19.375 37.207C19.3672 37.3828 19.5117 37.5312 19.6875 37.5312H21.5664C21.7305 37.5312 21.8672 37.4023 21.8789 37.2344C22.0312 34.5313 24.2852 32.375 27.0312 32.375C29.7773 32.375 32.0312 34.5313 32.1836 37.2344C32.1914 37.3984 32.3281 37.5312 32.4961 37.5312H34.375C34.5547 37.5312 34.6953 37.3828 34.6875 37.207C34.5742 34.4922 33.0391 32.1445 30.8125 30.875ZM27.0312 23.5859C28.7578 23.5859 30.1562 24.9844 30.1562 26.7109C30.1562 28.4375 28.7578 29.8359 27.0312 29.8359C25.3047 29.8359 23.9062 28.4375 23.9062 26.7109C23.9062 24.9844 25.3047 23.5859 27.0312 23.5859Z" fill="white"/>
</svg>
