<svg width="40" height="41" viewBox="0 0 40 41" fill="none" xmlns="http://www.w3.org/2000/svg">
<path d="M35 21.75V28H5V8H17.5V5.5H5C4.33696 5.5 3.70107 5.76339 3.23223 6.23223C2.76339 6.70107 2.5 7.33696 2.5 8V28C2.5 28.663 2.76339 29.2989 3.23223 29.7678C3.70107 30.2366 4.33696 30.5 5 30.5H15V35.5H10V38H30V35.5H25V30.5H35C35.663 30.5 36.2989 30.2366 36.7678 29.7678C37.2366 29.2989 37.5 28.663 37.5 28V21.75H35ZM22.5 35.5H17.5V30.5H22.5V35.5Z" fill="white"/>
<path d="M37.5 13V10.5H34.8738C34.7125 9.71753 34.4019 8.97351 33.9587 8.30875L35.8212 6.44625L34.0538 4.67875L32.1912 6.54125C31.5265 6.09814 30.7825 5.78746 30 5.62625V3H27.5V5.62625C26.7175 5.78746 25.9735 6.09814 25.3087 6.54125L23.4462 4.67875L21.6788 6.44625L23.5413 8.30875C23.0981 8.97351 22.7875 9.71753 22.6262 10.5H20V13H22.6262C22.7875 13.7825 23.0981 14.5265 23.5413 15.1912L21.6788 17.0538L23.4462 18.8212L25.3087 16.9587C25.9735 17.4019 26.7175 17.7125 27.5 17.8738V20.5H30V17.8738C30.7825 17.7125 31.5265 17.4019 32.1912 16.9587L34.0538 18.8212L35.8212 17.0538L33.9587 15.1912C34.4019 14.5265 34.7125 13.7825 34.8738 13H37.5ZM28.75 15.5C28.0083 15.5 27.2833 15.2801 26.6666 14.868C26.0499 14.456 25.5693 13.8703 25.2855 13.1851C25.0016 12.4998 24.9274 11.7458 25.0721 11.0184C25.2167 10.291 25.5739 9.6228 26.0983 9.09835C26.6228 8.5739 27.291 8.21675 28.0184 8.07206C28.7458 7.92736 29.4998 8.00162 30.1851 8.28545C30.8703 8.56928 31.456 9.04993 31.868 9.66661C32.2801 10.2833 32.5 11.0083 32.5 11.75C32.499 12.7443 32.1036 13.6975 31.4006 14.4006C30.6975 15.1036 29.7443 15.499 28.75 15.5Z" fill="white"/>
</svg>
