<svg width="40" height="41" viewBox="0 0 40 41" fill="none" xmlns="http://www.w3.org/2000/svg">
<path d="M8.889 9.61108H26.6668V11.3889H8.889V9.61108ZM8.889 18.5H17.8734V20.2778H8.889V18.5ZM25.9757 14.0555H8.889V15.8333H24.199L25.9757 14.0555ZM14.2146 32.8022C14.5134 33.1449 14.8927 33.408 15.3184 33.5678C15.7441 33.7276 16.2029 33.7791 16.6534 33.7178H25.3234C25.5297 33.7178 25.7276 33.6358 25.8734 33.4899C26.0193 33.3441 26.1012 33.1463 26.1012 32.94C26.1012 32.7337 26.0193 32.5359 25.8734 32.39C25.7276 32.2441 25.5297 32.1622 25.3234 32.1622H16.6534C15.6412 32.1444 15.8212 31.2655 15.9634 30.9933C16.1489 30.6738 16.2933 30.3322 16.3934 29.9766C16.4599 29.6905 16.4286 29.3904 16.3045 29.1242C16.1805 28.8579 15.9708 28.6409 15.709 28.5078C15.2884 28.3183 14.8173 28.2718 14.3678 28.3756C13.9182 28.4793 13.5151 28.7275 13.2201 29.0822C12.8379 29.4766 12.3068 30.08 11.7979 30.6666C12.1123 29.4344 12.5201 27.8533 12.9201 26.3111C13.0347 25.9597 13.0119 25.5779 12.8562 25.2426C12.7006 24.9074 12.4236 24.6436 12.0812 24.5044C11.702 24.3743 11.2876 24.3929 10.9215 24.5564C10.5555 24.72 10.2651 25.0163 10.109 25.3855C9.62899 26.3089 5.82899 32.6766 5.79122 32.7411C5.73883 32.8288 5.70424 32.9259 5.6894 33.027C5.67456 33.1281 5.67978 33.2311 5.70475 33.3301C5.72972 33.4292 5.77395 33.5223 5.83492 33.6043C5.89589 33.6862 5.97241 33.7554 6.06011 33.8078C6.23721 33.9135 6.44909 33.9446 6.64913 33.8942C6.84917 33.8438 7.02098 33.716 7.12677 33.5389C7.269 33.3 10.3023 28.2189 11.259 26.5222C10.539 29.3 9.74566 32.3911 9.699 32.6689C9.64646 32.8731 9.66223 33.0889 9.74389 33.2833C9.82555 33.4777 9.96861 33.6401 10.1512 33.7455C10.3546 33.8464 10.5858 33.8767 10.8083 33.8316C11.0308 33.7866 11.232 33.6687 11.3801 33.4966C11.5201 33.37 11.7823 33.0689 12.4434 32.3011C13.0594 31.5766 13.6903 30.865 14.3357 30.1666C14.5779 29.9111 14.7246 30.0244 14.5823 30.2755C14.3041 30.6271 14.1237 31.0459 14.0593 31.4896C13.9949 31.9332 14.0489 32.3861 14.2157 32.8022H14.2146Z" fill="white"/>
<path d="M31.1111 24.6055V36.0555H4.44439V4.94439H31.1111V10.4922L32.5888 9.01439C32.8163 8.79002 33.0657 8.58902 33.3333 8.41439V3.83328C33.3333 3.53859 33.2162 3.25598 33.0078 3.0476C32.7995 2.83923 32.5169 2.72217 32.2222 2.72217H3.33328C3.03859 2.72217 2.75598 2.83923 2.5476 3.0476C2.33923 3.25598 2.22217 3.53859 2.22217 3.83328V37.1666C2.22217 37.4613 2.33923 37.7439 2.5476 37.9523C2.75598 38.1607 3.03859 38.2777 3.33328 38.2777H32.2222C32.5169 38.2777 32.7995 38.1607 33.0078 37.9523C33.2162 37.7439 33.3333 37.4613 33.3333 37.1666V24.3077C32.6518 24.6689 31.8636 24.7745 31.1111 24.6055Z" fill="white"/>
<path d="M37.9198 13.6789L37.3387 13.0978C37.6357 12.7053 37.7861 12.2213 37.7638 11.7296C37.7414 11.2379 37.5478 10.7695 37.2165 10.4056C36.7864 10.0265 36.224 9.83272 35.6517 9.86644C35.0794 9.90015 34.5436 10.1586 34.161 10.5856L20.2443 24.5L19.3143 27.9911C19.2996 28.0368 19.2978 28.0857 19.3091 28.1323C19.3205 28.1789 19.3445 28.2215 19.3785 28.2553C19.4126 28.2892 19.4553 28.3129 19.502 28.3239C19.5488 28.3349 19.5976 28.3328 19.6432 28.3178L23.1221 27.3767L36.1132 14.3856L36.6621 14.9356C36.7004 14.9739 36.7308 15.0193 36.7516 15.0694C36.7723 15.1194 36.783 15.1731 36.783 15.2272C36.783 15.2814 36.7723 15.3351 36.7516 15.3851C36.7308 15.4352 36.7004 15.4806 36.6621 15.5189L31.1987 20.9822C31.0321 21.149 30.9385 21.3752 30.9386 21.611C30.9387 21.8467 31.0325 22.0728 31.1993 22.2395C31.3661 22.4061 31.5922 22.4997 31.828 22.4996C32.0638 22.4995 32.2899 22.4057 32.4565 22.2389L37.9198 16.7756C38.3305 16.3647 38.5611 15.8076 38.5611 15.2267C38.5611 14.6458 38.3305 14.0887 37.9198 13.6778V13.6789Z" fill="white"/>
</svg>
